<svg xmlns="http://www.w3.org/2000/svg" viewBox="0 0 188.37 54.12"><defs><style>.cls-1{fill:#fff;}.cls-2{fill:#feda00;}</style></defs><g id="Layer_2" data-name="Layer 2"><g id="Слой_1" data-name="Слой 1"><path class="cls-1" d="M67.67,32.34V11.68a.48.48,0,0,1,.48-.48H80.34a.47.47,0,0,1,.47.48V13.5a.48.48,0,0,1-.47.48h-9.2a.47.47,0,0,0-.48.47v6a.48.48,0,0,0,.48.48h8.25a.48.48,0,0,1,.48.47v1.85a.48.48,0,0,1-.48.48H71.14a.47.47,0,0,0-.48.48v8.13a.47.47,0,0,1-.48.47h-2a.48.48,0,0,1-.48-.47"/><path class="cls-1" d="M84,32.34V18.63a.48.48,0,0,1,.48-.48h1.88a.47.47,0,0,1,.48.48V32.34a.47.47,0,0,1-.48.47H84.49a.48.48,0,0,1-.48-.47"/><path class="cls-1" d="M98.11,32.81H95.86a.46.46,0,0,1-.44-.29L89.86,18.81a.48.48,0,0,1,.44-.66h2.19a.49.49,0,0,1,.45.31l3.62,9.8a.48.48,0,0,0,.89,0l3.64-9.8a.48.48,0,0,1,.45-.31h2a.47.47,0,0,1,.44.65L98.55,32.51a.45.45,0,0,1-.44.3"/><path class="cls-1" d="M118.88,28.48a.48.48,0,0,1,.3.62,6.65,6.65,0,0,1-6.42,4.17c-3.93,0-7.38-2.86-7.38-7.83,0-4.61,3.33-7.74,7-7.74,4.51,0,7,3.1,7,7.68a6.5,6.5,0,0,1-.06.91H108.86a.47.47,0,0,0-.48.52,4.31,4.31,0,0,0,4.38,3.93,3.93,3.93,0,0,0,3.95-2.52.49.49,0,0,1,.6-.29ZM115.93,24a.47.47,0,0,0,.48-.51,3.68,3.68,0,0,0-4-3.24,3.94,3.94,0,0,0-3.92,3.16A.48.48,0,0,0,109,24Z"/><path class="cls-1" d="M134.27,18.47l3.21,9.3a.48.48,0,0,0,.91,0l2.71-9.26a.48.48,0,0,1,.46-.34h2a.48.48,0,0,1,.45.62l-4.45,13.71a.47.47,0,0,1-.45.33h-2.27a.45.45,0,0,1-.45-.32L133.06,23a.48.48,0,0,0-.9,0l-3.25,9.53a.48.48,0,0,1-.45.32h-2.34a.48.48,0,0,1-.45-.32l-4.5-13.71a.48.48,0,0,1,.45-.63h2.13a.47.47,0,0,1,.45.34L127,27.77a.48.48,0,0,0,.91,0l3.21-9.32a.48.48,0,0,1,.45-.32h2.28a.47.47,0,0,1,.45.32"/><path class="cls-1" d="M150.5,24.43l4-.58c.88-.12,1.12-.58,1.12-1.1,0-1.43-.94-2.62-3.17-2.62a3.09,3.09,0,0,0-3.24,2.46.48.48,0,0,1-.57.39l-1.82-.43a.48.48,0,0,1-.36-.54c.51-2.57,2.93-4.31,5.93-4.31,4.39,0,6.1,2.49,6.1,5.36v7.35a16.2,16.2,0,0,0,.1,1.88.46.46,0,0,1-.47.52h-1.84a.48.48,0,0,1-.48-.4,13.14,13.14,0,0,1-.09-1.58A5.32,5.32,0,0,1,151,33.27c-3,0-4.91-2.07-4.91-4.39,0-2.62,1.92-4.08,4.45-4.45m5.09,2.1v-.67l-4.48.67a2.17,2.17,0,1,0,.25,4.33c2.34,0,4.23-1.13,4.23-4.33"/><path class="cls-1" d="M162.91,32.34V11.68a.47.47,0,0,1,.48-.48h1.91a.48.48,0,0,1,.48.48V32.34a.48.48,0,0,1-.48.47h-1.91a.47.47,0,0,1-.48-.47"/><path class="cls-1" d="M170.65,32.34V11.68a.48.48,0,0,1,.48-.48H173a.47.47,0,0,1,.48.48V32.34a.47.47,0,0,1-.48.47h-1.91a.48.48,0,0,1-.48-.47"/><path class="cls-1" d="M179.1,28.27a.47.47,0,0,1,.61.3A3.15,3.15,0,0,0,183,30.83c1.62,0,2.5-.91,2.5-1.95s-.67-1.61-1.89-1.89l-2.5-.55a4.17,4.17,0,0,1-3.66-4.11c0-2.5,2.35-4.63,5.22-4.63,3.61,0,5,2.1,5.45,3.48a.48.48,0,0,1-.29.6l-1.62.61a.48.48,0,0,1-.62-.31,2.83,2.83,0,0,0-2.92-1.95,2.21,2.21,0,0,0-2.44,1.95c0,.89.55,1.53,1.67,1.77l2.38.52c2.65.58,4.06,2.19,4.06,4.36s-1.74,4.54-5.37,4.54-5.45-2.2-5.89-3.86a.47.47,0,0,1,.31-.55Z"/><path class="cls-1" d="M86.37,15.45h-2A.41.41,0,0,1,84,15v-2a.41.41,0,0,1,.41-.41h2a.41.41,0,0,1,.41.41v2a.41.41,0,0,1-.41.41"/><path class="cls-2" d="M0,21.56V42.68a.42.42,0,0,0,.22.37l19.07,11a.44.44,0,0,0,.65-.38V35a.43.43,0,0,1,.65-.37L36,43.51a.47.47,0,0,0,.43,0L54.74,33a.44.44,0,0,0,.21-.38V11.45a.42.42,0,0,0-.21-.37L35.66.06A.43.43,0,0,0,35,.43V19.15a.43.43,0,0,1-.65.37l-15.42-8.9a.42.42,0,0,0-.43,0L.22,21.18A.43.43,0,0,0,0,21.56Zm52.51-6.79V29.25a.44.44,0,0,1-.65.38L39.32,22.39a.43.43,0,0,1,0-.75l12.54-7.25A.44.44,0,0,1,52.51,14.77ZM37.45,19.15V4.66a.43.43,0,0,1,.65-.37l12.54,7.24a.43.43,0,0,1,0,.75L38.1,19.52A.43.43,0,0,1,37.45,19.15ZM50.64,32.49,38.1,39.73a.43.43,0,0,1-.65-.37V24.87a.43.43,0,0,1,.65-.37l12.54,7.24A.43.43,0,0,1,50.64,32.49Zm-17.5-10.1L20.59,29.63a.44.44,0,0,1-.65-.38V14.77a.44.44,0,0,1,.65-.38l12.55,7.25A.43.43,0,0,1,33.14,22.39ZM35,24.87V39.36a.43.43,0,0,1-.65.37L21.81,32.49a.43.43,0,0,1,0-.75L34.36,24.5A.43.43,0,0,1,35,24.87ZM15.63,32.49,3.09,39.73a.43.43,0,0,1-.65-.37V24.87a.43.43,0,0,1,.65-.37l12.54,7.24A.43.43,0,0,1,15.63,32.49ZM17.5,35V49.46a.43.43,0,0,1-.65.38L4.31,42.6a.43.43,0,0,1,0-.75l12.54-7.24A.43.43,0,0,1,17.5,35Zm0-20.21V29.25a.44.44,0,0,1-.65.38L4.31,22.39a.43.43,0,0,1,0-.75l12.54-7.25A.44.44,0,0,1,17.5,14.77Z"/></g></g></svg>