<svg width="117" height="28" viewBox="0 0 117 28" fill="none" xmlns="http://www.w3.org/2000/svg">
<path d="M21.419 12.371C21.04 12.7523 20.7498 13.2125 20.569 13.7187C20.3882 14.225 20.3213 14.7649 20.373 15.3L20.355 15.282C20.4082 15.9119 20.3233 16.5457 20.1062 17.1394C19.8891 17.733 19.545 18.2721 19.0981 18.7191C18.6511 19.166 18.112 19.5101 17.5184 19.7272C16.9247 19.9443 16.2909 20.0292 15.661 19.976L15.679 19.994C14.9256 19.9239 14.1689 20.0878 13.5121 20.4635C12.8552 20.8392 12.3303 21.4083 12.0087 22.0933C11.6872 22.7783 11.5848 23.5458 11.7154 24.2911C11.846 25.0364 12.2033 25.7233 12.7386 26.2581C13.2739 26.7929 13.9611 27.1496 14.7065 27.2795C15.452 27.4095 16.2194 27.3064 16.904 26.9842C17.5887 26.6621 18.1574 26.1366 18.5325 25.4794C18.9076 24.8222 19.0708 24.0654 19 23.312L19.019 23.33C18.9659 22.7002 19.0508 22.0663 19.2679 21.4727C19.485 20.879 19.829 20.3399 20.276 19.8929C20.7229 19.446 21.262 19.102 21.8557 18.8849C22.4493 18.6678 23.0832 18.5828 23.713 18.636L23.694 18.618C24.3095 18.6734 24.9289 18.5725 25.495 18.3246C26.0611 18.0768 26.5554 17.6902 26.9322 17.2004C27.3091 16.7107 27.5562 16.1337 27.6507 15.5231C27.7452 14.9124 27.684 14.2878 27.4727 13.7071C27.2615 13.1263 26.9072 12.6083 26.4425 12.201C25.9778 11.7937 25.4177 11.5104 24.8143 11.3771C24.2109 11.2439 23.5837 11.2651 22.9907 11.4389C22.3977 11.6126 21.8581 11.9332 21.422 12.371H21.419Z" fill="#0047FF"/>
<path d="M14.0421 17.636L14.0231 17.618C14.5585 17.6719 15.0991 17.6062 15.6059 17.4256C16.1128 17.245 16.5731 16.9541 16.9537 16.5738C17.3343 16.1935 17.6256 15.7333 17.8066 15.2266C17.9876 14.7199 18.0537 14.1794 18.0001 13.644L18.0191 13.662C17.966 13.0321 18.0509 12.3983 18.268 11.8046C18.4851 11.211 18.8291 10.6719 19.2761 10.2249C19.723 9.77798 20.2621 9.43395 20.8558 9.21685C21.4494 8.99976 22.0833 8.91483 22.7132 8.968L22.6941 8.95C23.4476 9.02076 24.2046 8.85736 24.8618 8.4821C25.519 8.10684 26.0445 7.53797 26.3665 6.8531C26.6885 6.16824 26.7914 5.40071 26.6612 4.6552C26.5309 3.90969 26.1739 3.22251 25.6388 2.68737C25.1036 2.15224 24.4165 1.7952 23.6709 1.66498C22.9254 1.53475 22.1579 1.63766 21.473 1.95968C20.7882 2.28169 20.2193 2.80714 19.844 3.46435C19.4688 4.12155 19.3054 4.87852 19.3761 5.632L19.3582 5.613C19.4115 6.24289 19.3267 6.87683 19.1097 7.47055C18.8926 8.06427 18.5486 8.60346 18.1016 9.05045C17.6546 9.49745 17.1154 9.84148 16.5217 10.0585C15.928 10.2755 15.294 10.3603 14.6642 10.307L14.6821 10.326C14.1468 10.2721 13.6062 10.3378 13.0994 10.5184C12.5925 10.6989 12.1322 10.9899 11.7516 11.3702C11.371 11.7505 11.0797 12.2107 10.8987 12.7174C10.7177 13.2241 10.6516 13.7646 10.7051 14.3L10.6872 14.282C10.7401 14.9118 10.6551 15.5456 10.4379 16.1392C10.2208 16.7327 9.87675 17.2718 9.42983 17.7187C8.98291 18.1656 8.44387 18.5096 7.85031 18.7268C7.25675 18.9439 6.62296 19.029 5.99315 18.976L6.01115 18.994C5.25767 18.9232 4.5007 19.0866 3.8435 19.4619C3.18629 19.8372 2.66085 20.406 2.33883 21.0909C2.01681 21.7758 1.9139 22.5433 2.04413 23.2888C2.17435 24.0343 2.53139 24.7215 3.06652 25.2566C3.60166 25.7918 4.28885 26.1488 5.03435 26.279C5.77986 26.4093 6.54739 26.3063 7.23226 25.9843C7.91713 25.6623 8.48599 25.1369 8.86125 24.4797C9.23651 23.8224 9.39991 23.0655 9.32915 22.312L9.34815 22.33C9.29498 21.7001 9.37991 21.0663 9.597 20.4726C9.8141 19.879 10.1581 19.3399 10.6051 18.8929C11.052 18.446 11.5912 18.1019 12.1848 17.8849C12.7784 17.6678 13.4123 17.5828 14.0421 17.636Z" fill="#FF2A33"/>
<path d="M7.34021 15.629C7.71923 15.2478 8.00942 14.7876 8.19006 14.2813C8.3707 13.775 8.43733 13.235 8.38521 12.7L8.40421 12.718C8.351 12.088 8.43597 11.4539 8.65318 10.8601C8.87039 10.2663 9.2146 9.7271 9.66178 9.28011C10.109 8.83312 10.6483 8.48913 11.2422 8.27218C11.8361 8.05522 12.4702 7.97052 13.1002 8.024L13.0812 8.006C13.8344 8.07657 14.5911 7.91308 15.248 7.53784C15.9049 7.16261 16.4301 6.59388 16.7519 5.90923C17.0737 5.22457 17.1765 4.45732 17.0463 3.71209C16.9161 2.96686 16.5592 2.27994 16.0242 1.745C15.4893 1.21006 14.8023 0.853142 14.0571 0.722918C13.3119 0.592694 12.5446 0.695505 11.86 1.01733C11.1753 1.33915 10.6066 1.86432 10.2314 2.52122C9.85613 3.17812 9.69265 3.93478 9.76321 4.688L9.74521 4.67C9.79838 5.29985 9.71345 5.93372 9.49636 6.52736C9.27926 7.121 8.93523 7.66011 8.48828 8.10707C8.04132 8.55403 7.50221 8.89806 6.90857 9.11515C6.31493 9.33224 5.68106 9.41717 5.05121 9.364L5.06921 9.382C4.45378 9.32681 3.83438 9.42786 3.2684 9.67578C2.70241 9.9237 2.20817 10.3105 1.83146 10.8003C1.45475 11.29 1.20776 11.867 1.11339 12.4776C1.01901 13.0883 1.0803 13.7129 1.29157 14.2935C1.50285 14.8742 1.85727 15.3921 2.322 15.7993C2.78673 16.2066 3.34673 16.4899 3.95011 16.6231C4.55349 16.7562 5.18072 16.7349 5.77368 16.5612C6.36664 16.3874 6.90615 16.0668 7.34221 15.629H7.34021Z" fill="#0047FF"/>
<path d="M45.38 10.14H41.08V7H53.62V10.14H49.34V21H45.38V10.14ZM61.96 21.28C60.48 21.28 59.1467 20.9667 57.96 20.34C56.7867 19.7133 55.86 18.8467 55.18 17.74C54.5133 16.6333 54.18 15.3867 54.18 14C54.18 12.6133 54.5133 11.3667 55.18 10.26C55.86 9.15333 56.7867 8.28667 57.96 7.66C59.1467 7.03333 60.48 6.72 61.96 6.72C63.44 6.72 64.7667 7.03333 65.94 7.66C67.1267 8.28667 68.0533 9.15333 68.72 10.26C69.4 11.3667 69.74 12.6133 69.74 14C69.74 15.3867 69.4 16.6333 68.72 17.74C68.0533 18.8467 67.1267 19.7133 65.94 20.34C64.7667 20.9667 63.44 21.28 61.96 21.28ZM61.96 18C62.6667 18 63.3067 17.8333 63.88 17.5C64.4533 17.1667 64.9067 16.7 65.24 16.1C65.5733 15.4867 65.74 14.7867 65.74 14C65.74 13.2133 65.5733 12.52 65.24 11.92C64.9067 11.3067 64.4533 10.8333 63.88 10.5C63.3067 10.1667 62.6667 10 61.96 10C61.2533 10 60.6133 10.1667 60.04 10.5C59.4667 10.8333 59.0133 11.3067 58.68 11.92C58.3467 12.52 58.18 13.2133 58.18 14C58.18 14.7867 58.3467 15.4867 58.68 16.1C59.0133 16.7 59.4667 17.1667 60.04 17.5C60.6133 17.8333 61.2533 18 61.96 18ZM77.9341 17.28H75.7741V21H71.8141V7H78.2141C79.4807 7 80.5807 7.21333 81.5141 7.64C82.4474 8.05333 83.1674 8.65333 83.6741 9.44C84.1807 10.2133 84.4341 11.1267 84.4341 12.18C84.4341 13.1933 84.1941 14.08 83.7141 14.84C83.2474 15.5867 82.5741 16.1733 81.6941 16.6L84.7141 21H80.4741L77.9341 17.28ZM80.4341 12.18C80.4341 11.5267 80.2274 11.02 79.8141 10.66C79.4007 10.3 78.7874 10.12 77.9741 10.12H75.7741V14.22H77.9741C78.7874 14.22 79.4007 14.0467 79.8141 13.7C80.2274 13.34 80.4341 12.8333 80.4341 12.18ZM93.5988 21.28C92.1321 21.28 90.8121 20.9733 89.6388 20.36C88.4788 19.7333 87.5654 18.8667 86.8988 17.76C86.2321 16.6533 85.8988 15.4 85.8988 14C85.8988 12.6 86.2321 11.3467 86.8988 10.24C87.5654 9.13333 88.4788 8.27333 89.6388 7.66C90.8121 7.03333 92.1321 6.72 93.5988 6.72C94.8788 6.72 96.0321 6.94667 97.0588 7.4C98.0854 7.85333 98.9388 8.50667 99.6188 9.36L97.0988 11.64C96.1921 10.5467 95.0921 10 93.7988 10C93.0388 10 92.3588 10.1667 91.7588 10.5C91.1721 10.8333 90.7121 11.3067 90.3788 11.92C90.0588 12.52 89.8988 13.2133 89.8988 14C89.8988 14.7867 90.0588 15.4867 90.3788 16.1C90.7121 16.7 91.1721 17.1667 91.7588 17.5C92.3588 17.8333 93.0388 18 93.7988 18C95.0921 18 96.1921 17.4533 97.0988 16.36L99.6188 18.64C98.9388 19.4933 98.0854 20.1467 97.0588 20.6C96.0321 21.0533 94.8788 21.28 93.5988 21.28ZM114.704 7V21H110.744V15.54H105.344V21H101.384V7H105.344V12.26H110.744V7H114.704Z" fill="#191925"/>
</svg>
